# xmcd
#
# Track frame offsets: 
#        150
#        20911
#        36725
#        56546
#        76522
#        98064
#        123258
#        146552
#        170099
#        186999
#        205934
#        225260
#        246412
#        266671
#        292118
#        309811
#
# Disc length: 4337 seconds
#
# Revision: 1
# Processed by: cddbd v1.5.2PL0 Copyright (c) Steve Scherf et al.
# Submitted via: ExactAudioCopyFreeDBPlugin 1.0
#
DISCID=e510ef10
DTITLE=Celph Titled and Buckwild - Nineteen Ninety Now
DYEAR=2010
DGENRE=Hip-Hop
TTITLE0=The Deal Maker
TTITLE1=Out To Lunch (feat. Treach of Naughty By Nature)
TTITLE2=Eraserheads (feat. Vinnie Paz of Jedi Mind Tricks)
TTITLE3=Fuckmaster Sex
TTITLE4=Swashbuckling (feat. Apathy, Ryu and Esoteric)
TTITLE5=I Could Write A Rhyme
TTITLE6=Hardcore Data
TTITLE7=Mad Ammo (feat. F.T. and R.A. the Rugged Man)
TTITLE8=Tingin'
TTITLE9=There Will Be Blood (feat. Sadat X, Grand Puba, A.G., O.C. and D
TTITLE9=iamond D)
TTITLE10=Miss Those Days
TTITLE11=Step Correctly
TTITLE12=Wack Juice
TTITLE13=Styles Ain't Raw (feat. Apathy and Chino XL)
TTITLE14=Where I Are
TTITLE15=Time Travels On (feat. Majik Most and Dutchmassive)
EXTD=
EXTT0=
EXTT1=
EXTT2=
EXTT3=
EXTT4=
EXTT5=
EXTT6=
EXTT7=
EXTT8=
EXTT9=
EXTT10=
EXTT11=
EXTT12=
EXTT13=
EXTT14=
EXTT15=
PLAYORDER=
